<svg xmlns="http://www.w3.org/2000/svg" width="170" height="92" fill="none" viewBox="0 0 170 92"><rect width="169" height="91" x=".5" y=".5" stroke="#afb1b8" rx="3.5"/><path fill="#afb1b8" d="M85.425 43.408a2.95 2.95 0 0 1-.605-1.988v-2.884q0-1.325.602-2.015.6-.69 2.065-.686 1.376 0 1.954.587c.42.499.624 1.109.577 1.724v.678h-1.64v-.686q.008-.338-.048-.672a.65.65 0 0 0-.235-.399.95.95 0 0 0-.594-.156 1 1 0 0 0-.625.165.77.77 0 0 0-.272.44 3.3 3.3 0 0 0-.065.712v3.5c-.026.337.047.675.21.982a.77.77 0 0 0 .328.238.9.9 0 0 0 .424.056.9.9 0 0 0 .58-.159.7.7 0 0 0 .245-.425q.058-.349.051-.701v-.71h1.641v.648a2.64 2.64 0 0 1-.567 1.813c-.377.428-1.02.642-1.964.642s-1.658-.229-2.062-.704M92.257 43.438c-.415-.45-.622-1.103-.622-1.969v-3.032q0-1.285.622-1.945.621-.66 2.079-.657 1.447 0 2.069.657.623.66.625 1.945v3.032q0 1.287-.632 1.966-.63.677-2.062.677c-.955 0-1.661-.229-2.08-.674m2.843-.728c.149-.28.216-.589.197-.897v-3.714a1.65 1.65 0 0 0-.193-.88.8.8 0 0 0-.335-.241.9.9 0 0 0-.433-.052.9.9 0 0 0-.434.052.8.8 0 0 0-.337.241c-.15.275-.217.578-.197.88v3.731c-.02.309.047.617.197.898q.144.142.346.222a1.16 1.16 0 0 0 .843 0q.2-.08.346-.222zM99.004 35.924h1.766l1.328 5.595 1.359-5.595h1.719L105.35 44h-1.271l-.136-5.613L102.632 44h-1.019l-1.359-5.633-.126 5.633h-1.284zM107.33 35.924h2.752q2.378 0 2.378 2.293 0 2.197-2.504 2.194h-.937V44h-1.699zm2.351 3.451c.168.019.338.005.5-.039s.309-.117.434-.216c.195-.273.281-.593.245-.912a2.5 2.5 0 0 0-.082-.733.6.6 0 0 0-.125-.222.7.7 0 0 0-.214-.162 1.8 1.8 0 0 0-.758-.13h-.659v2.414zM114.909 35.924h1.825L118.606 44h-1.584l-.37-1.862h-1.627L114.644 44h-1.606zm1.56 5.279-.636-3.39-.635 3.39zM120.117 35.924h1.189l2.276 4.607v-4.607h1.41V44h-1.131l-2.29-4.81V44h-1.457zM128.294 40.92l-1.892-4.985h1.594l1.155 3.203 1.083-3.203h1.56l-1.869 4.986V44h-1.631zM88.048 47.532v.422h-1.386v3.282h-.581v-3.282h-1.393v-.422zM92.393 51.236h-.449a.2.2 0 0 1-.126-.035.2.2 0 0 1-.074-.085l-.401-.88H89.42l-.4.88a.24.24 0 0 1-.062.1.2.2 0 0 1-.126.035h-.448l1.698-3.704h.592zm-2.813-1.375h1.603l-.68-1.508a3 3 0 0 1-.125-.349q-.035.107-.064.197l-.062.155zM95.321 50.872q.16.008.32 0 .137-.012.271-.044.125-.026.245-.067.112-.042.227-.091v-.833h-.679a.14.14 0 0 1-.092-.03.1.1 0 0 1-.026-.03.1.1 0 0 1-.008-.037v-.284h1.318v1.42a2.6 2.6 0 0 1-.716.301q-.21.053-.425.077-.247.023-.496.023a2.6 2.6 0 0 1-.856-.138 2.1 2.1 0 0 1-.68-.387 1.8 1.8 0 0 1-.438-.587 1.85 1.85 0 0 1-.156-.768 1.9 1.9 0 0 1 .153-.774c.097-.22.247-.42.438-.587.194-.167.425-.297.68-.384.29-.095.6-.142.91-.138q.238 0 .472.032.208.03.404.094.18.058.34.147.156.086.296.193l-.163.229a.14.14 0 0 1-.055.05.2.2 0 0 1-.078.02.2.2 0 0 1-.105-.029 2 2 0 0 1-.167-.088 1.5 1.5 0 0 0-.227-.1 2 2 0 0 0-.313-.082 2.6 2.6 0 0 0-.431-.032 2 2 0 0 0-.656.103c-.189.065-.36.165-.5.293a1.3 1.3 0 0 0-.315.46 1.73 1.73 0 0 0 0 1.235c.074.175.19.333.34.467.139.127.308.227.495.293.217.064.445.089.673.073M100.736 50.814h1.855v.422h-2.422v-3.704h.581zM104.521 51.236h-.581v-3.704h.581zM106.681 47.55a.3.3 0 0 1 .089.067l2.483 2.792a1 1 0 0 1 0-.132v-2.76h.506v3.72h-.292a.3.3 0 0 1-.126-.021.3.3 0 0 1-.091-.07l-2.48-2.79v2.88h-.486v-3.704h.302q.05 0 .095.017M114.036 47.532v.407h-2.058v1.223h1.668v.393h-1.668v1.264h2.058v.408h-2.656v-3.695zM53.162 24.656l25.795 6.323v22.158l-25.795-6.32zm-1.655-1.89v25.127l29.1 7.136V29.905z"/><path fill="#afb1b8" d="M67.104 66.692 38 59.551V34.427l29.104 7.139z"/><path fill="#afb1b8" d="m51.99 24.371 25.458 6.244-10.826 9.35-25.463-6.247zm-.483-1.604L38 34.427l29.104 7.14 13.504-11.662zM68.741 65.279l11.867-10.247-11.867-2.913z"/></svg>