<svg xmlns="http://www.w3.org/2000/svg" width="170" height="92" fill="none" viewBox="0 0 170 92"><rect width="169" height="91" x=".5" y=".5" stroke="#afb1b8" rx="3.5"/><path fill="#afb1b8" fill-rule="evenodd" d="m70 23 7.008 6.634L64 29.626v32.188h34V49.507l7 6.627V23zm27.692 25.728-19.87-18.81h19.87zm-6.169 8.377H69.38V35.459h1.565V55.64h20.578zM74.61 66.1l-.818 1.685-.818-1.685h-.686l1.194 2.246v1.309h.62v-1.309l1.192-2.246zm1.028 3.555.288-.828h1.377l.29.828h.645l-1.345-3.555h-.555l-1.342 3.555zm.976-2.8.515 1.474h-1.03zm3.257 1.389a.8.8 0 0 0-.134.451q0 .45.315.73.317.279.844.279.528 0 .909-.286l.2.237h.688l-.522-.618q.308-.42.308-1.076h-.516q0 .359-.148.651l-.687-.81.242-.176a1.3 1.3 0 0 0 .369-.371.8.8 0 0 0 .112-.41.73.73 0 0 0-.249-.564.9.9 0 0 0-.635-.23q-.43 0-.683.244-.255.242-.254.66 0 .171.08.354.084.183.29.444-.395.283-.529.49m1.604.786a.9.9 0 0 1-.561.2.59.59 0 0 1-.425-.154.53.53 0 0 1-.159-.4q0-.285.293-.508l.076-.054zm-.637-1.575q-.252-.31-.252-.515 0-.178.103-.295a.35.35 0 0 1 .276-.118.37.37 0 0 1 .266.1q.105.098.105.237a.44.44 0 0 1-.151.344l-.076.062zm5.786 1.931q.366-.32.42-.888h-.615q-.05.38-.232.544-.184.165-.547.164-.397 0-.606-.303-.204-.303-.205-.88v-.314q.006-.569.22-.862.218-.295.62-.295.346 0 .525.17t.225.552h.615q-.059-.584-.418-.903t-.947-.32q-.436 0-.771.208a1.35 1.35 0 0 0-.51.59 2.1 2.1 0 0 0-.179.887v.332q.007.49.183.862.177.37.498.573.325.2.75.2.608 0 .974-.317m3.63-.498q.18-.395.181-.918v-.197a2.15 2.15 0 0 0-.185-.911 1.36 1.36 0 0 0-.52-.6q-.336-.21-.77-.21t-.771.212q-.334.21-.52.608a2.2 2.2 0 0 0-.183.918v.2q.002.51.185.9.186.391.523.604.339.21.771.21.438 0 .772-.21.337-.213.517-.606m-.661-2.01q.225.316.224.907v.185q0 .6-.222.913-.219.313-.63.313a.74.74 0 0 1-.634-.32q-.227-.32-.227-.906v-.205q.005-.574.229-.886a.73.73 0 0 1 .628-.315q.41 0 .632.315" clip-rule="evenodd"/></svg>